# xmcd
#
# Track frame offsets:
#	150
#	13815
#	32557
#	45865
#	63447
#	76835
#	87927
#	102200
#	119050
#	141205
#	153480
#	173627
#	183370
#	197467
#	209170
#	223050
#	241585
#	252557
#
# Disc length: 3677 seconds
#
# Revision: 6
# Processed by: cddbd v1.5.2PL0 Copyright (c) Steve Scherf et al.
# Submitted via: audiograbber 1.83.01
#
DISCID=f50e5b12
DTITLE=Various Artist - Guitar Kings
DYEAR=1900
DGENRE=Blues
TTITLE0=Santana - Jingo
TTITLE1=The Booze Brothers feat. Mark Knopfler - Rock Steady Woman
TTITLE2=John Mayall - A Big Man
TTITLE3=Mich Ryder - Rock And Roll
TTITLE4=Tony Joe White - You Got Me Running
TTITLE5=Eric Clapton - Snake Drive
TTITLE6=Jimi Hendrix - Little Wing
TTITLE7=Johnny Winter - Kind Hearted Woman
TTITLE8=Santana - Soul Sacrifice
TTITLE9=Johnny Winter - Parchman Farm
TTITLE10=John Mayall - Road Show
TTITLE11=Eric Clapton and Jimmy Page - Tribute To Elmore
TTITLE12=Jimi Hendrix - Purple Haze
TTITLE13=Alice Cooper - AC Instrumental
TTITLE14=The Yardbirds with Jeff Beck - Jeff's Blues
TTITLE15=The Booze Brothers feat. Mark Knopfler - Where Are You Tonight
TTITLE16=Eric Clapton and Jimmy Page - Miles Road
TTITLE17=Jimi Hendrix - Voodoo Chile (Slight Return)[Short Version]
EXTD=
EXTT0=
EXTT1=
EXTT2=
EXTT3=
EXTT4=
EXTT5=
EXTT6=
EXTT7=
EXTT8=
EXTT9=
EXTT10=
EXTT11=
EXTT12=
EXTT13=
EXTT14=
EXTT15=
EXTT16=
EXTT17=
PLAYORDER=
